<?xml version="1.0" encoding="UTF-8"?>
<svg viewBox="0 0 1024 1024" xmlns="http://www.w3.org/2000/svg">
 <g stroke="#fde17c" stroke-width="1.2">
  <path d="m6.6006 437.46c119.25-65.006 238.5-130.01 357.76-195.02 198.92 69.849 397.84 139.7 596.76 209.54-134.38 100.98-268.77 201.96-403.16 302.94-183.79-105.82-367.58-211.64-551.36-317.47h6e-5z" clip-path="url(#imagebot_8)" fill="#434c9e"/>
  <path d="m24.84 436.87l532.23 304.3c128.12-95.72 256.23-191.44 384.34-287.16-170.62-60.194-409.23-142.39-579.85-202.58-167.74 91.708-273.73 150.07-336.72 185.44z" clip-path="url(#imagebot_8)" fill="#daae5e"/>
  <g fill="#e7cf9d">
   <path d="m58.748 433.46c14.402-8.1 28.803-16.2 43.205-24.3 8.5773 13.022 17.155 26.044 25.732 39.066-22.979-4.9219-45.958-9.8439-68.937-14.766z" clip-path="url(#imagebot_8)"/>
   <path d="m118.55 401.69c10.473-4.985 20.946-9.97 31.418-14.955 8.217 9.344 16.434 18.689 24.651 28.034-18.689-4.36-37.379-8.72-56.069-13.079z" clip-path="url(#imagebot_8)"/>
   <path d="m124.16 463.36c57.849-35.234 216.7-127.47 274.55-162.7 157.26 44.725 290.45 92.939 420.64 142.15-104.65 75.999-209.3 152-313.96 228-127.08-69.149-254.16-138.3-381.24-207.45z" clip-path="url(#imagebot_8)"/>
   <path d="m165.27 373.66c9.3449-4.9851 18.69-9.9702 28.035-14.955 9.3449 9.9702 18.69 19.94 28.035 29.91-18.69-4.9851-37.38-9.9702-56.069-14.955z" clip-path="url(#imagebot_8)"/>
   <path d="m327.86 282.36c7.6583-3.7345 15.317-7.469 22.975-11.204 12.276 7.4747 24.552 14.95 36.829 22.424-19.934-3.7402-39.869-7.4804-59.804-11.221z" clip-path="url(#imagebot_8)"/>
   <path d="m555.85 721.26c-9.3448-16.82-18.69-33.639-28.035-50.459 25.539 3.7345 51.078 7.469 76.618 11.204l-48.583 39.255z" clip-path="url(#imagebot_8)"/>
   <path d="m623.12 667.05c14.955-10.59 29.91-21.179 44.866-31.769-23.05-4.9793-46.099-9.9587-69.149-14.938 8.0943 15.569 16.188 31.138 24.283 46.707z" clip-path="url(#imagebot_8)"/>
   <path d="m688.54 618.47l50.459-33.645c-24.294-2.4897-48.589-4.9794-72.883-7.4691 7.4747 13.705 14.95 27.409 22.424 41.114z" clip-path="url(#imagebot_8)"/>
   <path d="m729.65 534.38c6.8495 13.079 13.699 26.159 20.548 39.238l48.6-31.769c-23.05-2.4897-46.099-4.9794-69.149-7.469z" clip-path="url(#imagebot_8)"/>
   <path d="m854.87 495.13c16.814-11.834 33.628-23.669 50.442-35.504-23.044-1.8701-46.088-3.7402-69.131-5.6103 6.2299 13.705 12.46 27.409 18.69 41.114z" clip-path="url(#imagebot_8)"/>
   <path d="m293.86 303.36c7.6583-3.7345 15.317-7.469 22.975-11.204 12.276 7.4747 24.552 14.95 36.829 22.424-19.934-3.7402-39.869-7.4804-59.804-11.221z" clip-path="url(#imagebot_8)"/>
   <path d="m256.86 325.36c7.6583-3.7345 15.317-7.469 22.975-11.204 12.276 7.4747 24.552 14.95 36.829 22.424-19.934-3.7402-39.869-7.4804-59.804-11.221z" clip-path="url(#imagebot_8)"/>
   <path d="m218.27 347.66c9.3449-4.9851 18.69-9.9702 28.035-14.955 9.3449 9.9702 18.69 19.94 28.035 29.91-18.69-4.9851-37.38-9.9702-56.069-14.955z" clip-path="url(#imagebot_8)"/>
   <path d="m779.65 493.38c6.8495 13.079 13.699 26.159 20.548 39.238l48.6-31.769c-23.05-2.4897-46.099-4.9794-69.149-7.469z" clip-path="url(#imagebot_8)"/>
  </g>
 </g>
</svg>
