<?xml version="1.0" encoding="UTF-8"?>
<svg viewBox="0 0 989.18927 563.73889" xmlns="http://www.w3.org/2000/svg">
 <defs>
  <filter id="d">
   <feGaussianBlur stdDeviation="8.6905"/>
  </filter>
  <linearGradient id="c" x1="910.69" x2="609.12" y1="53.42" y2="724.16" gradientUnits="userSpaceOnUse">
   <stop stop-color="#d40000" offset="0"/>
   <stop stop-color="#d40000" offset=".7416"/>
   <stop stop-color="#a00000" offset="1"/>
  </linearGradient>
  <linearGradient id="b" x1="305.79" x2="397.77" y1="561.52" y2="444.02" gradientUnits="userSpaceOnUse">
   <stop stop-color="#950000" offset="0"/>
   <stop stop-color="#c90000" offset=".5"/>
   <stop stop-color="#a00" offset="1"/>
  </linearGradient>
  <linearGradient id="a" x1="330.95" x2="475.47" y1="-345.62" y2="-198.79" gradientUnits="userSpaceOnUse">
   <stop stop-color="#d40000" offset="0"/>
   <stop stop-color="#ff5050" offset=".3509"/>
   <stop stop-color="#d40000" offset="1"/>
  </linearGradient>
 </defs>
 <g transform="translate(-17.416 -380.42)">
  <path transform="translate(0 308.27)" d="m985.75 93.007s-573.2 514.8-610.98 521.79c-37.921 7.0181-336.49-144.88-336.49-144.88z" fill-opacity=".5" filter="url(#d)"/>
  <g transform="translate(44.286 25.714)">
   <path transform="translate(0 308.27)" d="m5.5968 429.98 935.87-362.69-593.97 486.89c-10.818 7.9979-28.123 13.77-39.719 8.7838z" fill="url(#c)"/>
   <path transform="translate(0 308.27)" d="m311.89 554.89c12.907 5.4732 32.8-1.9041 50.599-20.406 25.182-26.178 37.897-65.569 28.445-86.57-9.8069-21.79-39.833-16.894-65.695 10.038-25.257 26.301-38.723 65.072-31.77 87.96z" fill="url(#b)"/>
   <path d="m340.46 797.49c-6.2551 5.8236-9.5269 15.33-7.7339 20.731 2.1253 6.4021 10.117 5.3614 17.13-1.4263 8.116-7.8552 12.31-20.29 9.7616-27.234-2.8968-7.8927-13.038-6.4725-21.901 2.292-9.9324 9.8219-15.03 25.122-11.744 33.567 3.6414 9.3579 15.889 7.567 26.559-3.1288 11.713-11.742 17.699-29.854 13.69-39.768-4.3672-10.801-18.685-8.6463-31.126 3.9442-13.465 13.627-20.325 34.506-15.606 45.863 5.0784 12.224 21.435 9.7121 35.621-4.7427 15.193-15.481 22.915-39.089 17.497-51.869-5.7779-13.629-24.147-10.766-40.052 5.5275-16.899 17.311-25.473 43.614-19.365 57.798 6.4675 15.02 26.825 11.809 44.43-6.3007 18.586-19.119 28.003-48.088 21.213-63.661-7.1487-16.397-29.474-12.842-48.76 7.0639-20.256 20.908-30.508 52.516-23.044 69.464 7.8225 17.761 32.097 13.867 53.048-7.8183 21.911-22.679 32.991-56.903 24.858-75.213-8.4897-19.114-34.697-14.883-57.297 8.565-23.553 24.436-35.454 61.253-26.658 80.914 2.4312 5.4349 6.2016 9.1037 10.882 11.089" fill="none" stroke="#f55" stroke-width="2"/>
   <path transform="matrix(-.48125 .30508 0 .51856 363.91 753.78)" d="m116.64 157.89c23.203-22.536 35.662-54.806 33.394-87.095-4.1183-58.62-56.154-104.9-115.04-100.72-27.686 1.9636-52.53 14.952-70.268 34.189l644.8-616.01c43.162-47.364 111.76-56.217 150.7-20.642 40.331 36.85 28.664 115.86-15.689 164.43-21.602 23.653-627.89 625.85-627.89 625.85" fill="url(#a)"/>
   <path transform="translate(0 308.27)" d="m311.89 554.89c12.907 5.4732 32.8-1.9041 50.599-20.406 25.182-26.178 37.897-65.569 28.445-86.57-9.8069-21.79-39.833-16.894-65.695 10.038-25.257 26.301-38.723 65.072-31.77 87.96 5.951 18.908 29.577 26.284 54.389 7.8235 36.429-27.679 593.61-486.45 593.61-486.45" fill="none" stroke="#f55" stroke-width="2"/>
  </g>
 </g>
</svg>
