<?xml version="1.0" encoding="UTF-8"?>
<svg width="459.8" height="465.87" viewBox="0 0 986 999" xmlns="http://www.w3.org/2000/svg">
 <path d="m270 750h-1l-1-1-1-1h-3l-3-1-4-2-4-1-4-1-5-1-6-1h-5l-6-1-7-1h-12l-7 1-6 1-7 1-6 2-7 2-5 2-5 2-5 1-5 1h-5l-5 1h-24l-4-1h-20l-4 1h-3l-2 1-3 1-3 2-2 2-1 2-2 3-3 7-3 7-4 6-3 6-3 5-3 5-2 4-2 3-1 1v1l235 166 204-32-7-57-226-136h11z" fill="#d4b8c0"/>
 <path d="m246 744h-27l-5-1h-26l-6 1h-26l-7 1h-14l-8 1h-7l-8 1-8 1h-7l-8 1-8 2-6 1-6 2-6 2-5 3-5 2-4 3-4 3-3 3-3 3-2 4-3 3-2 3-1 3-1 4-2 3-1 3v3l-1 3v17l17 6v-1l-1-1v-1l-1-2-1-2v-2l-1-2v-12l1-3 1-4 1-3 2-3 3-3 3-4 3-3 4-3 5-3 5-2 6-3 7-2 8-2 5-1 6-2 6-1 6-1 6-1 7-1 6-1 6-1 7-1h6l6-1 7-1 6-1h6l6-1 6-1h6l6-1h6l5-1h5l4-1h9l3-1h15l1-1z"/>
 <path d="m468 885h-20l-3-1h-41l-6 1h-27l-7 1h-7l-8 1h-7l-8 1h-8l-7 1-9 1-7 1-7 2-5 2-6 2-5 2-5 3-4 3-4 3-3 3-3 3-3 3-2 4-2 3-1 3-2 4-1 3-1 3v3l-1 3v17l17 6v-1l-1-1v-2l-1-1-1-2v-2l-1-3v-11l1-3 1-4 1-3 2-3 2-4 3-3 4-3 4-3 4-3 6-3 6-2 7-2 8-2 5-1 6-2 6-1 6-1 6-1 6-1 7-1 6-1 6-1 7-1h6l7-1 6-1 6-1h6l6-1h6l6-1h5l5-1h5l5-1h9l3-1h12l1-1h3z"/>
 <path d="m855 204v2l-1 1v21l-1 3v14l-1 4v12l-1 5v9l-1 5v10l-1 5v5l-1 5v11l-1 5-1 6v6l-1 5v12l-1 6-1 6v6l-1 6-1 6-1 6v6l-1 6-1 6-1 6-1 7-1 6v6l-1 6-1 6-1 7-1 6-1 6-1 6-1 6-2 6-1 6-1 6-1 6-1 5-2 6-1 6-1 6-2 5-1 6-1 5-2 5-1 6-2 5-2 5-1 5-2 4-1 5-2 5-2 4-2 5-1 4-2 4-2 4-2 4-2 3-1 1v1h-1l-1 1-1 1-1 1-1 1-1 1-1 1-1 2-2 1-2 1-1 2-2 1-2 2-2 2-2 2-2 2-2 1-3 2-2 3-3 2-2 2-3 2-3 2-3 2-3 3-3 2-3 3-4 2-3 2-3 3-4 2-3 3-4 3-4 2-3 2-4 3-4 3-4 2-4 3-4 2-5 3-4 2-4 3-5 2-4 3-5 2-5 3-4 2-5 3-5 2-4 2-5 3-5 2-5 2-6 2-5 2-5 2-5 2-5 2-6 2-5 2-6 1-5 2-6 2-5 1-6 2-6 1-5 1-6 2h-6l-6 1-5 1-6 1-6 1h-6l-6 1h-6l-6 1h-25l-6-1h-6l-6-1-7-1-6-1-6-1v1h2v1h2l1 1h1l1 1h2l1 1 1 1h2l2 1h1l2 1 2 1 2 1h2l2 1 3 1h2l2 1h3l2 1 3 1h3l2 1 3 1h3l3 1h3l3 1h3l3 1h4l3 1h7l3 1h29l4-1h8l4-1h4l5-1 3-1 5-1 4-1 4-1 4-1 5-1 4-1 4-1 4-2 5-2 4-1 5-2 4-2 4-2 5-2 4-2 4-3 5-2 4-3 5-2 4-3 5-4 4-3 5-3 4-3 5-4 4-4 4-4 5-4 4-4 5-4 4-5 4-5 5-4 4-5 5-5 4-6 5-5 4-6 4-6 4-6 4-6 5-6 4-7 2-4 3-4 2-4 2-5 3-4 2-5 2-4 2-5 3-5 2-5 2-5 2-5 2-5 2-5 2-6 2-5 2-5 2-6 2-5 1-6 2-6 2-5 1-6 2-6 2-6 2-6 1-6 1-5 2-6 2-6 1-6 2-7 1-5 2-7 1-5 1-7 1-5 1-7 2-5 1-6 1-6 2-6 1-6 1-6 1-6 1-5 1-6 1-6 1-6 1-5 1-6 1-5 1-5v-6l1-5 1-5 1-5 1-5v-5l1-5 1-5v-5l1-4v-5l1-4 1-4v-4l1-4v-4l1-4v-7l1-3v-4l1-3v-5l1-3v-7l1-2v-9h1v-1z"/>
 <path d="m832 76-484 688 9 15 506-681-31-22z"/>
 <path d="m748 4 236 110-10 29-245-130 19-9z"/>
 <path d="m468 885-209-140-6 16 215 124z"/>
 <path d="m462 925-182 33-3 19 185-52z"/>
 <path d="m21 819 224 130-26 2-198-132z"/>
 <path d="m3 851 225 124-11 20-214-144z"/>
 <path d="m437 711 388-517v27l-1 3v21l-1 5v9l-1 5v11l-1 5v12l-1 5v6l-1 6v12l-1 6v6l-1 6v6l-1 7-1 6v6l-1 7-1 6v6l-1 6-1 6-1 6-1 7-1 6-1 6-1 6v6l-1 5-1 6-1 6-1 5-2 6-1 5-1 6-1 4-2 6-1 5-1 4-1 5-2 4-2 6-2 6-2 5-1 6-2 5-2 5-1 5-2 6-2 5-1 4-2 5-1 5-2 4-1 4-2 4-2 4-1 5-2 3-1 4-2 4-2 4-2 3-1 4-2 3-2 4-2 3-3 3-2 3-2 3-2 3-3 3-3 3-2 3-3 3-3 3-3 2-3 3-4 3-3 3-4 2-4 3-4 3-4 2-5 3-4 2-5 3-4 2-5 2-5 2-5 2-5 2-5 2-5 2-6 1-5 2-6 2-5 1-6 1-6 1-6 2-6 1-6 1-6 1-7 1-5 1-7 1-6 1-6 1-6 1h-6l-6 1h-6l-6 1h-5l-6 1h-5l-6 1h-10l-5 1h-14l-4 1h-27l-2 1h-6z" fill="#d4b8c0"/>
</svg>
