<?xml version="1.0" encoding="UTF-8"?>
<!DOCTYPE svg  PUBLIC '-//W3C//DTD SVG 1.1//EN'  'http://www.w3.org/Graphics/SVG/1.1/DTD/svg11.dtd'>
<svg enable-background="new -37 -28.6943 1994 1546.3885" version="1.1" viewBox="-37 -28.6943 1994 1546.3885" xml:space="preserve" xmlns="http://www.w3.org/2000/svg">
<g stroke-width=".0938">
	<path d="m1674 1.92c17.55-1.4 36.24-0.53 51.92 8.34 13.63 7.78 22.17 21.98 27.4 36.37 8.41 23.22 11.16 47.93 13.59 72.35 4.4399 46.34 4.45 93.23 13.72 139.02 4.4301 19.07 10.05 39.55 25.21 53.05 5.28 5.56 13.18 6.65 20.15 8.9 8.48 2.8 17.5 1.42 26.1-0.04 14.24-2.67 27.61-8.45 41.04-13.68 1.89-0.82 3.97-0.81 6.02-0.93-5.02 6.22-12.44 9.67-19.21 13.58-14.19 7.54-29.75 13.55-45.99 13.92-3.63 0.71-7.24 2.39-10.99 1.36-26.2-4.74-50.7-17.86-69.62-36.53-7.2-6.82-14.13-14.02-19.62-22.33-21.45-32.01-32.91-69.19-44.38-105.62-6.21-18.56-12.35-37.46-22.98-54.06-6.02-9.13-13.72-17.48-23.48-22.62-7.9401-4.39-16.9-6.79-25.89-7.62-13.05-0.45-26.23-0.55-39.09 1.99-5.77 0.82-11.4 2.38-17.17 3.14-0.79-3.29-1.54-6.58-2.33-9.87 11.82-4.42 24.11-7.58 36.62-9.33 18.49-2.91 38.16-1.73 55.19 6.6 16.26 7.88 28.69 22.01 37.19 37.71 4.71 8.88 8.75 18.12 12.31 27.52 0.61 1.67 1.49 3.23 2.52 4.7 0.5801-5.96-0.34-11.9-0.59-17.85-0.09-9.72-1.17-19.38-1.8101-29.06-1.08-12.12-3.01-24.27-6.96-35.81-3.15-8.57-8.28-16.97-16.36-21.66-9.55-5.29-20.87-5.69-31.49-4.63-23.73 2.81-46.25 11.41-68.27 20.3-7.1801 2.71-13.93 6.46-21.25 8.79 0.09 0.53 0.29 1.59 0.39 2.12-1.9301-8.06-3.88-16.1-5.72-24.18 19.35-10.41 39.45-19.4 59.94-27.3 20.62-7.75 41.85-14.58 63.89-16.64m-17.96 19.43c15.25 0.08 31.49 4.96 41.71 16.84 10.41 11.6 15.21 26.93 17.95 41.98 3.4401 20.45 4.4301 41.18 5.0601 61.86 1.13 7.43 0.36 14.99 1.36 22.43 0.88 19.33 2.77 38.7 6.99 57.63 0.9 4.98 2.9401 9.71 3.24 14.81 4.54 10.26 9.28 20.56 15.58 29.93 8.1499 12.22 16.98 24.84 30.03 32.25-0.72-3.33-2.5599-6.22-3.87-9.32-5.75-12.98-9.1799-26.83-11.99-40.7-8.7-45.27-9.58-91.47-14.52-137.18-2.6899-22.87-5.46-46.26-14.97-67.49-3.29-6.31-7.03-12.88-13.18-16.81-6.42-4.93-14.48-7.05-22.36-8.15-13.66-2.23-27.51-0.33-41.03 1.92z" fill="#C7CA31" stroke="#C7CA31"/>
	<path d="m381.17 12.89c4.84 2.61 8.31 7.06 12.68 10.33 16.54 14.81 33.25 29.45 49.81 44.24 1.69 1.09 2.96-0.8 3.94-1.91 13.02-16.15 26.25-32.14 39.06-48.46 0.03 10.35-1.77 20.59-2.46 30.9-1.89 17.65-3.71 35.32-6.85 52.8-0.42 2.28-0.84 4.55-1.21 6.84-1.66 0.67-3.3 1.45-5.1 1.67-17.36 2.22-34.64 4.98-52 7.15-8.31 1.35-16.83 1.6-24.99 3.7-2.12 2.54-1.1 6.39-1.96 9.44-3.32 16.46-5.23 33.17-8.85 49.56-10.84-16.31-21.34-32.85-32.47-48.97-14.56 21.67-28.9 43.48-43.09 65.39-16.76-0.64-33.33-3.24-50.06-4.32-0.18 0.27-0.54 0.82-0.72 1.09-1.64-0.38-3.27-0.83-4.95-1.02-14.3-1.27-28.69-0.39-42.99-1.59-7.02-0.18-14.04-0.03-21.05-0.46 2.34-2.91 5.86-4.4 8.9-6.43 23.01-14.65 46-29.36 68.99-44.05 3.28-2.2 6.58-4.37 10.1-6.18-12.51-1.98-25.24-2.32-37.8-3.96-10.08-0.51-20.09-1.85-30.14-2.69-8-0.69-16.03-1.29-23.97-2.59 27.05-7.86 53.89-16.48 80.85-24.63-13.93-9.58-28.95-17.55-42.79-27.29 19.67-0.08 39.33 0.35 59 0.31 18.34 0.89 36.73 0.62 55.09 0.72-0.35-1.43-0.62-2.92-1.51-4.13-9.73-14.87-19.56-29.67-29.35-44.5 11.12 4.79 21.27 11.54 32.14 16.85 20.01 11.14 40.38 21.62 60.26 33-2.48-11.73-6.44-23.1-9.46-34.69-2.16-8.76-5.32-17.26-7.05-26.12z" fill="#C7CA31" stroke="#C7CA31"/>
	<path d="m1656 21.35c13.52-2.25 27.37-4.15 41.03-1.92 7.88 1.1 15.94 3.22 22.36 8.15 6.1499 3.93 9.8899 10.5 13.18 16.81 9.51 21.23 12.28 44.62 14.97 67.49 4.9401 45.71 5.8201 91.91 14.52 137.18 2.8101 13.87 6.24 27.72 11.99 40.7 1.3101 3.1 3.15 5.99 3.87 9.32-13.05-7.41-21.88-20.03-30.03-32.25-6.3-9.37-11.04-19.67-15.58-29.93-0.2999-5.1-2.34-9.83-3.24-14.81-4.22-18.93-6.11-38.3-6.99-57.63-1-7.44-0.23-15-1.36-22.43-0.63-20.68-1.62-41.41-5.0601-61.86-2.74-15.05-7.5399-30.38-17.95-41.98-10.22-11.88-26.46-16.76-41.71-16.84m77.14 214.13c-0.0701 0.37-0.2101 1.13-0.29 1.51 0.9699 2.71 2.7399-2.19 0.29-1.51z" fill="#fff" stroke="#fff"/>
	<path d="m1301.4 41.37c6.9-10.11 18.58-16.18 30.6-17.53 17.21-1.7 34.43 2.42 50.41 8.59 3.8099 1.02 7.05 3.41 9.61 6.37-0.58 0.89-1.15 1.79-1.71 2.69-3.1-0.13-6.2001 0.11-9.2101 0.83-7.58 1.01-14.44 5.53-19.53 11.1-5.2001 5.45-4.49 13.61-3.9 20.53 2.3099 13.59 7.38 26.54 9.6 40.15 0.5601 7.03 1.15 14.37-1.16 21.16-3.36 10.81-14.78 18.85-26.18 17.36-2.14 0.3-2.15-2.7-1.1-3.75 4.3199-4.43 10.13-7.91 12.4-13.96 2.13-9.05-0.87-18.17-3.5699-26.77-2.88-8.61-5.37-17.36-7.37-26.22-1.8201-11.01-1.74-23.07 4.16-32.92 0.9399-1.36 2-2.63 3.13-3.85 2.13-1.96 4.34-3.84 6.48-5.81-9.79-0.22-20.06-0.07-28.93 4.61-5 2.59-8.46 7.24-11.1 12.07-0.8101 1.64-1.48 3.34-2.05 5.06-5.12 16.14-7.23 33.35-15.23 48.48-5.64 10.62-14.41 19.95-25.55 24.81-6.62 3.05-14.08 5.3-21.38 3.76-1.3201-1.69 1.1899-3.03 2.21-4.14 7.4-5.12 15.51-9.59 21.36-16.62 6.34-7.85 10.58-17.31 12.54-27.2 3.6699-6.42 3.2-14.03 4.75-21.06 2.2299-9.66 4.8599-19.56 10.72-27.74z" fill="#C7CA31" stroke="#C7CA31"/>
	<path d="m1505 55.9c14.12-6.86 28.35-13.51 42.43-20.48 1.25 3.38 1.96 6.92 2.74 10.44 1.84 8.08 3.7899 16.12 5.72 24.18 0.78 3.54 1.65 7.07 2.51 10.6 0.7899 3.29 1.5399 6.58 2.33 9.87 1.73 7.91 3.97 15.7 5.35 23.68-6.7899-6.09-13.49-12.35-19.72-18.99-1.47-2.02-3.04-3.97-4.88-5.65-5.8099-5.3-11.03-11.28-17.48-15.84-2.4-1.68-4.6899-3.52-6.64-5.7-0.9399-1.01-1.88-2-2.86-2.93-3.2201-3.02-6.2801-6.18-9.5001-9.18z" fill="#DC49BE" stroke="#DC49BE"/>
	<path d="m1325.1 43.95c8.87-4.68 19.14-4.83 28.93-4.61-2.14 1.97-4.35 3.85-6.48 5.81-11.68 1.86-22.54 6.8-33.55 10.87 2.6399-4.83 6.0999-9.48 11.1-12.07z" fill="#fff" stroke="#fff"/>
	<path d="m1392 38.8c0.26 0.47 0.78 1.4 1.04 1.87 10.44 0.63 20.9 1.76 31.05 4.36 19.15 1.52 37.45 8.59 54.25 17.63 6.4501 3.66 12.95 7.37 18.66 12.14 1.12 0.97 2.29 1.89 3.52 2.76 3.0699 2.06 5.92 4.44 8.7 6.9 0.1901-0.02 0.5801-0.08 0.77-0.1 1.3 2.12 3.47 2.35 5.8 1.98-0.89 0.55-1.76 1.12-2.5801 1.7 3.3201 3.44 6.6801 6.86 10.08 10.25 0.1899 0.19 0.5699 0.57 0.77 0.77l0.0199 0.03c12.68 15.02 23.48 31.74 30.88 49.99 14.65 35.52 17.26 75.85 7.0801 112.91-9.51 35.53-29.92 68.2-58.39 91.6-29.05 24.19-65.84 39.16-103.66 41.16-39.8 2.6-80.34-8.72-112.99-31.65-43.83-30.18-72.64-81-75.91-134.13-1.71-26.59 2.61-53.6 12.51-78.35 4.1801-10.94 10.24-20.99 15.98-31.14 9.29-12.81 19.45-25.1 31.54-35.39 4.4501-3.78 9.05-7.38 13.62-11.03 1.9301-1.36 3.99-2.56 5.92-3.95-1.55 7.03-1.0801 14.64-4.75 21.06 0.0399-0.68 0.13-2.05 0.1699-2.74 0.8201-3.57 1.8201-7.13 1.8401-10.84-7.0901 4.09-13.01 9.85-18.96 15.39-4.0399 3.9-8.08 7.87-11.26 12.52 2.27-0.57 4.5601-1.16 6.7001-2.18-0.86 0.64-1.67 1.31-2.4401 2.03-1.4099 1.35-2.72 2.79-4.0199 4.24-5.9901 0.38-8.7201 6.27-11.77 10.55-22.47 33.08-32.8 74.17-28.55 113.94 3.11 30.67 14.67 60.38 33.17 85.05 21.81 29.32 53.19 51.75 88.49 61.57 28.2 8.46 58.64 9.73 87.32 2.84 33.19-7.92 63.94-25.81 87.02-50.96 17.5-19.15 30.95-42.32 37.47-67.5 12.64-40.23 8.12-85.02-10.23-122.78-15.1-30.7-39.03-57.19-68.58-74.53-13.13-8.11-27.61-13.64-41.99-19.07-7.03-3.39-15.01-3.07-22.56-4.22-8.85-1.23-17.79-0.3-26.65-1.16 3.01-0.72 6.1101-0.96 9.2101-0.83 0.5602-0.9 1.1302-1.8 1.7102-2.69z" fill="#DE96AE" stroke="#DE96AE"/>
	<path d="m1576.8 59.13c22.02-8.89 44.54-17.49 68.27-20.3 10.62-1.06 21.94-0.66 31.49 4.63 8.08 4.69 13.21 13.09 16.36 21.66 3.95 11.54 5.88 23.69 6.96 35.81 0.64 9.68 1.7201 19.34 1.8101 29.06 0.25 5.95 1.17 11.89 0.59 17.85-1.03-1.47-1.91-3.03-2.52-4.7-3.5599-9.4-7.6-18.64-12.31-27.52-8.5-15.7-20.93-29.83-37.19-37.71-17.03-8.33-36.7-9.51-55.19-6.6-12.51 1.75-24.8 4.91-36.62 9.33-0.86-3.53-1.73-7.06-2.51-10.6-0.1-0.53-0.3-1.59-0.39-2.12 7.3197-2.33 14.07-6.08 21.25-8.79z" fill="#fff" stroke="#fff"/>
	<path d="m1102 42.03c23.77-1.92 47.63 0.74 71.01 5.08 22.26 4.11 44.18 9.88 65.9 16.2 1.3 0.38 2.5 0.99 3.7201 1.62-1.65 2.75-1.5901 6.07-2.9501 8.94-3.65-0.23-7.2-1.12-10.81-1.54 3.77 1 7.46 2.27 11.06 3.81-0.89 3.23-1.86 6.43-2.9199 9.61-27.1-5.82-54.31-12.2-82.11-13.42-13.71-0.35-28 0.01-40.63 5.99-11.19 5.31-18.57 17.17-19.13 29.45-0.12-0.41-0.37-1.23-0.4901-1.65-1.59 13.59-1.23 27.3 0.41 40.87 1.89 15.21 3.7001 30.47 6.6901 45.5 1.61-7.46 2.52-15.06 4.46-22.45 0.75-2.91 1.3101-5.86 1.55-8.86 0.1 0.56 0.21 1.13 0.34 1.69 3.25-13.43 8.96-26.44 17.44-37.42 8.9701-12.1 22.24-20.56 36.42-25.27 10.9-3.78 22.47-4.98 33.92-5.59 7.9199-0.4 15.8 0.63 23.7 1.09 4.49 0.41 9 0.95 13.4 2.04-0.91 3.23-1.73 6.5-2.84 9.67-13.55 0.11-27.21-0.53-40.62 1.83-13.71 1.99-27.43 6.31-38.59 14.75-11.11 8.21-18.06 20.81-22.46 33.66-6.87 21.15-9.02 43.39-11.54 65.37-2.8099 25.15-6.14 50.4-13.31 74.75-3.5701 11.37-7.05 22.88-12.73 33.42-14.83 26.66-36.81 50.19-64.94 62.86-3.86 1.54-7.66 3.94-11.96 3.66-4.7-0.34-9.29 0.98-13.97 0.89-17 0.8-33.89-3.08-49.67-9.14-4.15-1.61-8.65-2.99-11.57-6.55 3.76-0.62 7.44 0.64 11.14 1.14 17.75 3.26 36.07 6.45 54.04 3.02 4.62-0.77 8.76-3.05 12.84-5.24 4.61-2.57 9.81-4.55 13.15-8.87 10.77-12.72 13.87-29.81 15.42-45.92 0.6-12 0.4099-24.02 0.1-36.03-3.23-50.86-13.59-101.08-15.57-152.05-0.7699-14.68 0.2001-29.5 3.1101-43.92 2.85-13.83 9.26-27.42 20.56-36.29 13.92-10.47 31.29-15.19 48.43-16.7m-1.58 16.88c-4.27 1.02-8.9099 1.01-12.8 3.22-14.96 2.89-29.62 12.71-34.32 27.79-5.86 18.42-5.2 38.01-4.61 57.09 0.98 6.74 0.66 13.59 1.84 20.31 1.01 5.83 0.63 11.8 1.63 17.64 2.7101 25 6.14 49.93 8.2001 74.99 1.9199 20.95 2.88 42.09 1.14 63.1-0.5601 10.53-3.24 20.79-5.3101 31.07 6.22-5.56 11.3-12.31 15.15-19.7 7.0699-13.3 12.56-27.47 16.02-42.14 2.5699-13.93 2.5-28.16 2.0599-42.28-1.3099-24.18-5.13-48.13-8.9199-72.03-2.3501-17.91-5.5701-35.84-5.13-53.98-0.2201-8.45 0.72-16.89 2.71-25.11 3.5-16.04 14.63-30.79 30.25-36.63 4.1801-1.47 8.35-3 12.59-4.33-6.84-0.71-13.69 0.41-20.5 0.99z" fill="#C7CA31" stroke="#C7CA31"/>
	<path d="m1361.5 53.42c5.09-5.57 11.95-10.09 19.53-11.1 8.8601 0.86 17.8-0.07 26.65 1.16 7.55 1.15 15.53 0.83 22.56 4.22 14.38 5.43 28.86 10.96 41.99 19.07 29.55 17.34 53.48 43.83 68.58 74.53 18.35 37.76 22.87 82.55 10.23 122.78-6.5199 25.18-19.97 48.35-37.47 67.5-23.08 25.15-53.83 43.04-87.02 50.96-28.68 6.89-59.12 5.62-87.32-2.84-35.3-9.82-66.68-32.25-88.49-61.57-18.5-24.67-30.06-54.38-33.17-85.05-4.25-39.77 6.08-80.86 28.55-113.94 3.0499-4.28 5.7799-10.17 11.77-10.55 3.1499 0.04 6.33 0.05 9.46-0.46-1.42-1.77-3.42-2.86-5.4401-3.78 0.77-0.72 1.5801-1.39 2.4401-2.03 5.51-3.33 10.43-9.37 17.57-7.9-1.08-0.42-2.14-0.85-3.1899-1.27 2.0599-2.34 4.62-4.15 7.2999-5.72-0.0399 0.69-0.13 2.06-0.1699 2.74-1.9601 9.89-6.2001 19.35-12.54 27.2-5.85 7.03-13.96 11.5-21.36 16.62-1.02 1.11-3.53 2.45-2.21 4.14 7.2999 1.54 14.76-0.71 21.38-3.76 11.14-4.86 19.91-14.19 25.55-24.81 8-15.13 10.11-32.34 15.23-48.48 10.5-4.81 21.2-9.35 32.47-12.08-5.9 9.85-5.9801 21.91-4.16 32.92 2 8.86 4.49 17.61 7.37 26.22 2.7 8.6 5.7 17.72 3.5699 26.77-2.2699 6.05-8.08 9.53-12.4 13.96-1.05 1.05-1.04 4.05 1.1 3.75 11.4 1.49 22.82-6.55 26.18-17.36 2.3101-6.79 1.7201-14.13 1.16-21.16-2.22-13.61-7.29-26.56-9.6-40.15-0.59-6.92-1.3-15.08 3.9-20.53m20.77-7.04c-1.51 2.75-0.6801 6.11-0.38 9.07 2.3099 11.7 8.98 21.99 16.59 30.96 11.87 14.45 27.37 25.41 39.07 40.03 3.7101 4.54 6.03 9.99 9.25 14.86 0.98 0.04 1.98 0.07 3 0.1 0.6901-0.8 1.4-1.6 2.14-2.41-0.49-3.34 0.73-6.67 0.12-10-1.3199-8.38-5.35-16.04-10.2-22.89-12.67-17.24-30.59-29.61-43.96-46.22-3.85-4.44-7.1299-9.38-11.3-13.52-1-1.32-3.5799-1.69-4.3299 0.02m5.2099 130.18c-9.5601 11.94-11.23 29.22-5.15 43.11 3.5 8.32 10.48 15.71 19.49 17.82 9.3101 2.26 19.28-2.21 24.95-9.66 10.35-13.28 11.13-32.89 2.5199-47.24-4.11-7.07-11.22-12.35-19.29-13.89-8.6201-0.93-17.17 3.19-22.52 9.86m-88.38-4.44c-9.9301 2.66-17.02 11.56-20.17 21-2.0699 6.83-3.24 14.18-1.6 21.24 1.62 10.54 7.5 21.02 17.27 25.94 4.72 2.5 10.28 2.85 15.47 1.87 10.2-2.47 17.64-11.53 20.78-21.2 4.96-14.58 1.9-32.46-9.77-43.04-5.72-5.49-14.29-7.82-21.98-5.81m181.13 84.14c-4.41 10.57-10.27 20.63-18.02 29.11-10.9 12.12-25.69 20.4-41.41 24.41-22.12 5.84-45.34 4.49-67.8 1.65-6.4601-0.74-12.88-2.54-19.42-2 14.65 6.25 30.62 8.5 46.38 9.73 19.19 1.2 39-0.59 56.76-8.39 18.91-8.16 34.52-23.71 42.54-42.71 3.09-7.48 6.1699-15.24 6.4399-23.42-2.44 3.56-3.71 7.72-5.47 11.62z" fill="#FFE8C8" stroke="#FFE8C8"/>
	<path d="m1314 56.02c11.01-4.07 21.87-9.01 33.55-10.87-1.13 1.22-2.1901 2.49-3.13 3.85-11.27 2.73-21.97 7.27-32.47 12.08 0.5701-1.72 1.24-3.42 2.0501-5.06z" fill="#DE96AE" stroke="#DE96AE"/>
	<path d="m1382.3 46.38c0.75-1.71 3.33-1.34 4.33-0.02 4.17 4.14 7.45 9.08 11.3 13.52 13.37 16.61 31.29 28.98 43.96 46.22 4.85 6.85 8.88 14.51 10.2 22.89 0.61 3.33-0.61 6.66-0.12 10-0.74 0.81-1.45 1.61-2.14 2.41-1.02-0.03-2.02-0.06-3-0.1-3.22-4.87-5.5399-10.32-9.25-14.86-11.7-14.62-27.2-25.58-39.07-40.03-7.61-8.97-14.28-19.26-16.59-30.96-0.3002-2.96-1.1302-6.32 0.3799-9.07z" fill="#C7CA31" stroke="#C7CA31"/>
	<path d="m1240 76.14c2.6801-7.86 4.92-15.86 7.72-23.68 12.3 6.96 24.8 13.54 37.04 20.6-4.5699 3.65-9.1699 7.25-13.62 11.03-12.09 10.29-22.25 22.58-31.54 35.39-5.5099 3.63-10.8 7.58-16.45 10.99 2.0601-7.78 4.84-15.34 7.0601-23.08 1.11-3.17 1.9299-6.44 2.84-9.67 1.5499-3.92 2.79-7.95 4.03-11.97 1.0599-3.18 2.0299-6.38 2.9199-9.61z" fill="#DC49BE" stroke="#DC49BE"/>
	<path d="m1100.5 58.91c6.8101-0.58 13.66-1.7 20.5-0.99-4.24 1.33-8.4099 2.86-12.59 4.33 0.09-0.62 0.26-1.86 0.35-2.48-7.15-0.51-14.01 1.76-21.06 2.36 3.8899-2.21 8.5298-2.2 12.8-3.22z" fill="#FFE8C8" stroke="#FFE8C8"/>
	<path d="m1087.7 62.13c7.0499-0.6 13.91-2.87 21.06-2.36-0.09 0.62-0.26 1.86-0.35 2.48-15.62 5.84-26.75 20.59-30.25 36.63-1.99 8.22-2.9301 16.66-2.71 25.11-0.4401 18.14 2.7799 36.07 5.13 53.98 3.7899 23.9 7.61 47.85 8.9199 72.03 0.4401 14.12 0.51 28.35-2.0599 42.28-3.4601 14.67-8.9501 28.84-16.02 42.14-3.85 7.39-8.9301 14.14-15.15 19.7 2.0701-10.28 4.75-20.54 5.3101-31.07 1.74-21.01 0.7799-42.15-1.14-63.1-2.0601-25.06-5.49-49.99-8.2001-74.99-1-5.84-0.62-11.81-1.63-17.64-1.1799-6.72-0.86-13.57-1.84-20.31-0.59-19.08-1.25-38.67 4.61-57.09 4.7001-15.08 19.36-24.9 34.32-27.79z" fill="#fff" stroke="#fff"/>
	<path d="m1497 74.8c5.7-3.47 11.41-6.97 17.51-9.72 0.98 0.93 1.92 1.92 2.86 2.93 0.15 0.79 0.4501 2.36 0.6 3.15-5.8099 2.15-11.65 4.23-17.45 6.4-1.23-0.87-2.4-1.79-3.52-2.76z" fill="#C7CA31" stroke="#C7CA31"/>
	<path d="m1517.4 68.01c1.9501 2.18 4.24 4.02 6.64 5.7l-0.39 1.01c-4.52 3.25-9.33 6.08-13.63 9.64-0.1899 0.02-0.58 0.08-0.77 0.1-2.7799-2.46-5.63-4.84-8.7-6.9 5.8-2.17 11.64-4.25 17.45-6.4-0.1499-0.79-0.45-2.36-0.6-3.15z" fill="#fff" stroke="#fff"/>
	<path d="m1114.3 78.32c12.63-5.98 26.92-6.34 40.63-5.99 27.8 1.22 55.01 7.6 82.11 13.42-1.24 4.02-2.4801 8.05-4.03 11.97-4.4-1.09-8.91-1.63-13.4-2.04-7.9-0.46-15.78-1.49-23.7-1.09-11.45 0.61-23.02 1.81-33.92 5.59-14.18 4.71-27.45 13.17-36.42 25.27-8.48 10.98-14.19 23.99-17.44 37.42-0.13-0.56-0.24-1.13-0.34-1.69-0.24 3-0.8 5.95-1.55 8.86-1.9399 7.39-2.85 14.99-4.46 22.45-2.99-15.03-4.8-30.29-6.6901-45.5-1.64-13.57-2-27.28-0.41-40.87 0.1201 0.42 0.3701 1.24 0.4901 1.65 0.5598-12.28 7.9398-24.14 19.13-29.45z" fill="#fff" stroke="#fff"/>
	<path d="m1524 73.71c6.45 4.56 11.67 10.54 17.48 15.84 1.84 1.68 3.41 3.63 4.88 5.65-1.35-0.26-2.46-0.94-3.26-2-1.4399-1.64-2.98-3.18-4.52-4.7-3.22-3.29-6.4099-6.64-10.2-9.28-1.61-1.5-3.21-2.98-4.77-4.5l0.39-1.01z" fill="#DE96AE" stroke="#DE96AE"/>
	<path d="m1510 84.36c4.3-3.56 9.11-6.39 13.63-9.64 1.5601 1.52 3.16 3 4.77 4.5-0.24 0.48-0.7 1.45-0.9401 1.93-3.8799 1.76-7.73 3.58-11.66 5.19-2.33 0.37-4.5 0.14-5.8-1.98z" fill="#C7CA31" stroke="#C7CA31"/>
	<path d="m1269 91.98c5.9501-5.54 11.87-11.3 18.96-15.39-0.02 3.71-1.02 7.27-1.8401 10.84-2.6799 1.57-5.24 3.38-7.2999 5.72 1.0499 0.42 2.11 0.85 3.1899 1.27-7.14-1.47-12.06 4.57-17.57 7.9-2.14 1.02-4.4301 1.61-6.7001 2.18 3.18-4.65 7.22-8.62 11.26-12.52z" fill="#DC49BE" stroke="#DC49BE"/>
	<path d="m1528.4 79.22c3.79 2.64 6.98 5.99 10.2 9.28-5.37 2.82-10.95 5.46-15.3 9.79-3.4-3.39-6.76-6.81-10.08-10.25 0.8201-0.58 1.6901-1.15 2.5801-1.7 3.9299-1.61 7.78-3.43 11.66-5.19 0.2401-0.48 0.7-1.45 0.94-1.93z" fill="#fff" stroke="#fff"/>
	<path d="m1538.6 88.5c1.54 1.52 3.0801 3.06 4.52 4.7 0.17 0.51 0.5 1.54 0.67 2.05-6.61 1.17-12.98 3.4-19.7 3.84l-0.0199-0.03c-0.2001-0.2-0.5801-0.58-0.77-0.77 4.35-4.33 9.93-6.97 15.3-9.79z" fill="#C7CA31" stroke="#C7CA31"/>
	<path d="m477.35 100.79c32.19 11.21 60.08 33.29 80.4 60.46 24.39 32.68 36.34 74.16 33.84 114.81-1.61 38.37-16.82 75.77-41.47 105.11-20.07 23.92-46.33 42.71-75.75 53.29-42.1 15.55-90.2 14.47-131.39-3.46-45.07-18.76-81.24-57.39-97.59-103.32-16.12-43.89-13.69-94.21 6.56-136.36 1.68 0.19 3.31 0.64 4.95 1.02-11.47 23.76-16.94 50.28-16.27 76.63 0.87 13.43 1.58 26.98 5.28 40.01 12.99 51.73 51.98 95.85 101.36 115.79 26.91 11.36 56.77 14.48 85.66 11.35 33.09-4.22 64.98-18.02 90.09-40.07 27.2-23.21 46.59-55.27 54.68-90.09 9.59-39.87 3.75-83.09-15.47-119.26-13.97-25.77-34.19-48.25-58.85-64.18-8.56-5.87-17.91-10.41-27.24-14.89 0.37-2.29 0.79-4.56 1.21-6.84z" fill="#DE96AE" stroke="#DE96AE"/>
	<path d="m1257.9 108.59c1.2999-1.45 2.61-2.89 4.0199-4.24 2.02 0.92 4.02 2.01 5.4401 3.78-3.1301 0.51-6.3101 0.5-9.46 0.46z" fill="#C7CA31" stroke="#C7CA31"/>
	<path d="m471.04 109.3c1.8-0.22 3.44-1 5.1-1.67 9.33 4.48 18.68 9.02 27.24 14.89 24.66 15.93 44.88 38.41 58.85 64.18 19.22 36.17 25.06 79.39 15.47 119.26-8.09 34.82-27.48 66.88-54.68 90.09-25.11 22.05-57 35.85-90.09 40.07-28.89 3.13-58.75 0.01-85.66-11.35-49.38-19.94-88.37-64.06-101.36-115.79-3.7-13.03-4.41-26.58-5.28-40.01-0.67-26.35 4.8-52.87 16.27-76.63 0.18-0.27 0.54-0.82 0.72-1.09 16.73 1.08 33.3 3.68 50.06 4.32 14.19-21.91 28.53-43.72 43.09-65.39 11.13 16.12 21.63 32.66 32.47 48.97 3.62-16.39 5.53-33.1 8.85-49.56 0.86-3.05-0.16-6.9 1.96-9.44 8.16-2.1 16.68-2.35 24.99-3.7 17.36-2.17 34.64-4.93 52-7.15m-16.71 75.33c-6.88 1.63-12.62 6.45-16.46 12.26-9.6 14.75-8.7 35.94 2.82 49.42 5.81 6.73 15.31 10.97 24.16 8.48 8.64-2.12 15.37-9.05 18.96-16.98 7.19-15.57 4.56-36.31-8.76-47.82-5.56-5.04-13.44-6.84-20.72-5.36m-105.59 40.07c-13.01 15.11-12.8 40.07 0.86 54.71 5.22 5.43 12.87 8.56 20.42 7.88 5.53-0.97 10.77-3.55 14.65-7.64 13.23-13.29 14.23-35.99 4.05-51.36-4.35-6.22-10.95-11.49-18.75-12.15-7.98-1.28-15.97 2.74-21.23 8.56m171.43 54.34c-5.83 12.17-14.08 23.06-23.62 32.56-23.26 22.84-54.2 37.53-86.44 41.94-25.62 3.51-52.59-0.5-75.16-13.49 12.88 9.59 27.02 17.41 41.34 24.62 20.31 9.71 42.1 17.28 64.76 18.37 16.51 0.79 33.75-2.8 47.27-12.7 13.77-9.81 22.67-25.03 28.03-40.79 6.42-19.55 8.79-40.31 8.38-60.82-1.76 3.33-2.85 6.96-4.56 10.31z" fill="#FFE8C8" stroke="#FFE8C8"/>
	<path d="m1387.5 176.56c5.35-6.67 13.9-10.79 22.52-9.86 8.0699 1.54 15.18 6.82 19.29 13.89 8.61 14.35 7.8301 33.96-2.5199 47.24-5.67 7.45-15.64 11.92-24.95 9.66-9.01-2.11-15.99-9.5-19.49-17.82-6.0799-13.89-4.4099-31.17 5.1501-43.11z" fill="#0589F8" stroke="#0589F8"/>
	<path d="m1299.1 172.12c7.6899-2.01 16.26 0.32 21.98 5.81 11.67 10.58 14.73 28.46 9.77 43.04-3.14 9.67-10.58 18.73-20.78 21.2-5.1899 0.98-10.75 0.63-15.47-1.87-9.77-4.92-15.65-15.4-17.27-25.94-1.64-7.06-0.47-14.41 1.6-21.24 3.15-9.44 10.24-18.34 20.17-21z" fill="#0589F8" stroke="#0589F8"/>
	<path d="m454.33 184.63c7.28-1.48 15.16 0.32 20.72 5.36 13.32 11.51 15.95 32.25 8.76 47.82-3.59 7.93-10.32 14.86-18.96 16.98-8.85 2.49-18.35-1.75-24.16-8.48-11.52-13.48-12.42-34.67-2.82-49.42 3.84-5.81 9.58-10.63 16.46-12.26z" fill="#0589F8" stroke="#0589F8"/>
	<path d="m348.74 224.7c5.26-5.82 13.25-9.84 21.23-8.56 7.8 0.66 14.4 5.93 18.75 12.15 10.18 15.37 9.18 38.07-4.05 51.36-3.88 4.09-9.12 6.67-14.65 7.64-7.55 0.68-15.2-2.45-20.42-7.88-13.66-14.64-13.87-39.6-0.86-54.71z" fill="#0589F8" stroke="#0589F8"/>
	<path d="m1733.2 235.48c2.45-0.68 0.6799 4.22-0.29 1.51 0.0799-0.38 0.2199-1.14 0.29-1.51z" fill="#FFE8C8" stroke="#FFE8C8"/>
	<path d="m1480.3 256.26c1.76-3.9 3.03-8.06 5.47-11.62-0.27 8.18-3.35 15.94-6.4399 23.42-8.02 19-23.63 34.55-42.54 42.71-17.76 7.8-37.57 9.59-56.76 8.39-15.76-1.23-31.73-3.48-46.38-9.73 6.54-0.54 12.96 1.26 19.42 2 22.46 2.84 45.68 4.19 67.8-1.65 15.72-4.01 30.51-12.29 41.41-24.41 7.75-8.48 13.61-18.54 18.02-29.11z" fill="#C0475A" stroke="#C0475A"/>
	<path d="m520.17 279.04c1.71-3.35 2.8-6.98 4.56-10.31 0.41 20.51-1.96 41.27-8.38 60.82-5.36 15.76-14.26 30.98-28.03 40.79-13.52 9.9-30.76 13.49-47.27 12.7-22.66-1.09-44.45-8.66-64.76-18.37-14.32-7.21-28.46-15.03-41.34-24.62 22.57 12.99 49.54 17 75.16 13.49 32.24-4.41 63.18-19.1 86.44-41.94 9.54-9.5 17.79-20.39 23.62-32.56z" fill="#C0475A" stroke="#C0475A"/>
	<path d="m1451.8 401.71c17.5-1.43 34.97-3.41 52.5-4.41 6.9199 22.87 13.6 45.82 20.71 68.64 4.23 15.82 9.5601 31.32 13.88 47.12 12.48 40.43 24.35 81.05 36.64 121.55 26.12 87.14 52.31 174.25 78.43 261.39 1.11 3.88 2.59 7.68 3.11 11.71-47.37 1.86-94.75 3.67-142.11 5.74-6.9301 1.35-13.98 0.82-20.98 1l-0.6799 0.02c-0.1 0.19-0.3 0.55-0.4 0.7401-1.4399-0.98-3.1801-0.88-4.8-0.81-39.37 1.71-78.75 3.16-118.12 4.73-2.95-1.55-6.45-1.09-9.6-0.77 2.09 1.11 5.9301 0.08 8.64 0.62-4.58 0.55-9.2 0.65-13.79 0.65-12.09 0.14-24.23-0.48-36.24 0.98-6.99 0.41-14.06-0.59-20.96 0.84-6.72 1.41-13.61 0.75-20.39 1.43-28.11 1.03-56.23 2.35-84.33 3.27 18.13-86.72 36.23-173.45 54.34-260.18 9.25-43.92 18.21-87.91 27.65-131.79 3.52-18.21 7.77-36.28 11.01-54.54 5-21.17 8.99-42.58 13.58-63.84 50.62-4.84 101.28-9.4 151.91-14.09m-0.79 51.16c-13.96-0.21-25.16 12.72-25.52 26.17-1.24 14.19 9.89 29.09 24.65 29.44 14.31 0.65 26.15-12.71 26.29-26.54 1-14.31-10.44-29.33-25.42-29.07m-127.52 116.81c-8.72 2.3-15 10.54-15.98 19.35-1.5699 10.68 4.85 22.54 15.52 25.54 8.99 2.83 19.15-1.98 23.52-10.13 6-10.19 3.4199-24.74-6.37-31.64-4.69-3.63-11.03-4.38-16.69-3.12m168.87 9.84c-4.51 1.57-8.59 4.43-11.56 8.17-8.38 10.07-8.5601 25.79-0.6 36.16 4.5499 6.16 12.05 10.3 19.81 10 10.84 0.3 20.46-8.03 23.75-18.02 3.97-11.08 0.5-24.51-8.7-31.96-6.15-5.24-15.05-6.95-22.7-4.35m-52.94 106.06c-13.82 2.5-24.91 14.04-28.47 27.39-4.92 16.63 1.6599 36.25 16.47 45.62 10.14 6.56 23.77 6.96 34.33 1.12 7.9601-4.57 14.27-12.01 17.34-20.69 5.8899-15.66 1.5399-34.93-11.49-45.72-7.59-6.7301-18.23-9.4101-28.18-7.7201m-168.93 81.15c-5.1799 1.87-8.7999 6.88-9.46 12.28-1.34 8.03 4.59 16.97 13.08 17.36 9.3201 0.52 16.34-9.58 14.24-18.3-1.19-8.07-9.91-14.23-17.86-11.34m232.77 2.63c-5.11 1.76-8.78 6.48-9.9199 11.67-1.4901 6.12 0.84 13.01 5.7599 16.95 4.9801 3.96 12.84 3.97 17.64-0.32 6.16-4.94 7.5701-14.45 3.78-21.25-3.12-6-10.79-9.53-17.26-7.05m-155.75 29.26c-10.64 2.75-19.96 9.66-26.17 18.65-11.54 16.41-12.53 39.45-2.65 56.87 7.27 13.27 21.08 23.11 36.36 24.15 17.07 1.5 33.84-8.43 42.23-23.1 11.24-18.7 9.52-44.23-4.41-61.07-10.51-13.29-28.87-20.04-45.36-15.5z" fill="#DC49BE" stroke="#DC49BE"/>
	<path d="m493.34 446.03c2.86-4.5 5.43-9.3 9.45-12.91 2.15 4.39 7.09 5.99 11.29 7.75 5.98 2.12 11.91 4.49 18.1 5.94l0.72 0.44c25.81 7.42 51.94 13.72 78.15 19.57 3.26 0.9 6.6 1.46 9.87 2.38 18.05 3.81 36.02 7.98 54.1 11.65 30.23 6.49 60.54 12.61 90.84 18.77-0.08 1.02-0.19 2.04-0.32 3.07-9.19 27.15-18.54 54.27-27.81 81.4-2.11 6.95-4.96 13.65-7.04 20.61-7.26 21.07-14.28 42.24-21.68 63.26-6.71-5.58-12.75-11.89-19.08-17.87-14.92-14.09-29.8-28.23-44.64-42.4-6.23-5.33-11.6-11.59-17.97-16.74 0.07 23.06 2.66 45.99 3.34 69.03 0.94 6.29 0.77 12.67 1.1801 19.01 0.68 6.01 0.6299 12.07 0.89 18.11l0.55 0.8c0.31 16.73 1.86 33.39 2.53 50.11 0.93 6.95 0.34 14 1.36 20.95 0.26 2.3 0.32 4.64 0.32 6.97-0.24 8.87 0.47 17.74 0.02 26.61-8.46 0.26-16.93 0.32-25.38-0.19-16.68 0.63-33.39 0.13-50.08 0.29-93.36 0.01-186.72 0.02-280.08-0.01-4.71-0.05-9.37 1.13-14.08 0.81-0.31-0.34-0.93-1.03-1.24-1.37 0.24-3.05 0.82-6.07 1.2-9.1 0.31-2.0099 0.75-3.99 1.31-5.9399 2.04-8.32 3.93-16.68 5.97-24.99 0.55-2.41 1.13-4.81 1.7-7.21 1.35-5.62 2.81-11.21 4.01-16.86 5.52-22.62 10.79-45.3 16.33-67.92 4.1-18.32 9.03-36.46 12.75-54.86-16.08 1.85-31.91 5.5-47.96 7.56l-0.8 0.5c-16.61 1.84-32.89 6.14-49.54 7.48-1.85-14.85-4.01-29.66-5.86-44.51-1.12-6.89-1.78-13.85-2.83-20.75-2.43-19.21-5.38-38.36-7.5-57.6 8.27-2.09 16.45-4.48 24.69-6.68 2.93-0.81 5.87-1.55 8.79-2.39 24.35-6.64 48.71-13.25 73.03-19.97 7.08-1.71 14-3.99 21.09-5.65 7.37-1.99 14.69-4.2 22.11-5.95l0.77-0.44c8.71-2.23 17.38-4.64 26.05-7.04 1.65-0.48 3.39-0.43 5.1-0.45 20.71 21.52 42.27 42.2 63.11 63.58 2.08 1.84 3.68 4.61 6.64 5.07 15.83-27.12 30.18-55.09 46.53-81.92z" fill="#FA8B05" stroke="#FA8B05"/>
	<path d="m1451 452.87c14.98-0.26 26.42 14.76 25.42 29.07-0.14 13.83-11.98 27.19-26.29 26.54-14.76-0.35-25.89-15.25-24.65-29.44 0.3599-13.45 11.56-26.38 25.52-26.17z" fill="#fff" stroke="#fff"/>
	<path d="m1525 465.94c5.46 4.91 9.91 10.82 15.03 16.07 52.31 56.66 105.44 112.56 158.53 168.48 52.34 54.94 104.61 109.96 157.74 164.13 3.63 3.37 6.6799 7.43 10.72 10.34 6.3-0.97 12.61-3.1 19.06-1.79 14.93 1.82 27.88 13.35 31.66 27.86 0.63 2.62 0.8301 5.41 2.27 7.78-0.03 4.4-1.77 8.6-2.36 12.96-2.67 9.58-9.1801 18.1-17.88 22.99-8 4.74-17.75 6.09-26.83 4.43-9.6901-1.96-18.55-7.77-24.17-15.9-9.22-13.07-8.8-32.11 1.1-44.69-1.96 4.51-4.5599 8.8-5.6899 13.64-2.15 9.5-0.8401 19.89 4.36 28.22 7.72 13.03 24 20.41 38.87 17.11 11.39-2.32 21.8-10.09 26.4-20.89 6.22-13.47 3.2899-30.67-7.4301-41.04-8.58-9.19-22.05-12.65-34.23-10.58-8.23 1.04-15.24 6.25-20.56 12.32-0.2899-0.01-0.86-0.03-1.1399-0.05-51.7-52.91-102.94-106.28-153.93-159.88-47.63-50.04-95.14-100.19-142.3-150.67-5.11-5.36-9.85-11.11-15.37-16.04 0.01 0.58 0.02 1.74 0.03 2.32-4.32-15.8-9.65-31.3-13.88-47.12z" fill="#DE96AE" stroke="#DE96AE"/>
	<path d="m1284 481.97c0.7001-0.85 1.4701-1.62 2.3201-2.33-3.24 18.26-7.49 36.33-11.01 54.54 0-0.79 0.01-2.35 0.02-3.13-5.13 6.1-8.9601 13.14-13.62 19.59-43.11 63.92-86.18 127.87-129.31 191.78-22.04 32.91-44.48 65.57-66.29 98.63 1.5801 2.89 4.5 4.83 6.25 7.66 9.9501 13.87 8.7301 34.28-2.58 47.02-11.47 14.01-33.3 17.8-48.74 8.28-14.7-8.17-22.47-26.84-17.72-43.01 1.41-5.24 4.02-10.11 7.3799-14.35-1.67 4.81-5.25 8.79-6.24 13.88-4.47 15.22 2.18 33 15.86 41.2 14.11 9.37 34.62 7.19 46.22-5.27 12.34-12 13.88-32.91 3.83-46.79-5.49-7.86-14.09-13.4-23.44-15.4-4.41-0.85-8.92-0.75-13.38-0.88 4.4399-1.51 9.1899-1.14 13.79-0.71 78.9-116.9 157.82-233.78 236.66-350.71z" fill="#DE96AE" stroke="#DE96AE"/>
	<path d="m1.16 647.12c67.16-27.45 134.56-54.33 201.77-81.65 1.05 6.9 1.71 13.86 2.83 20.75-31.93 12.38-63.55 25.58-95.37 38.26-27.45 11.02-54.8 22.32-82.34 33.13 6.97 16.28 14.83 32.19 22.1 48.36 24.28 52.52 48.56 105.04 72.79 157.58 3.46-0.22 6.93-0.38 10.38-0.04-9.63 0.22-19.81 1.99-27.31 8.52-9.62 7.45-15.04 19.81-14.1 31.93 1.21 16.34 14.24 31.23 30.61 33.65 16.65 3.24 34.44-6.94 40.43-22.72 4.92-11.99 2.68-26.27-5.22-36.45-3.37-4.85-8.46-7.99-12.98-11.63 16.16 5.89 25.57 24.6 22.38 41.23-2.35 14.3-13.54 26.7-27.53 30.48-15.35 4.48-33.17-1.58-42.15-14.91-8.07-11.23-9.38-26.93-2.92-39.21 2.16-5.23 6.3-9.11 10.09-13.13-17.3-36.77-34.06-73.8-51.2-110.65-17.36-37.86-34.99-75.6-52.26-113.5z" fill="#DE96AE" stroke="#DE96AE"/>
	<path d="m1323.5 569.68c5.66-1.26 12-0.51 16.69 3.12 9.7899 6.9 12.37 21.45 6.37 31.64-4.37 8.15-14.53 12.96-23.52 10.13-10.67-3-17.09-14.86-15.52-25.54 0.9799-8.81 7.2599-17.05 15.98-19.35z" fill="#fff" stroke="#fff"/>
	<path d="m1492.3 579.52c7.65-2.6 16.55-0.89 22.7 4.35 9.2 7.45 12.67 20.88 8.7 31.96-3.29 9.99-12.91 18.32-23.75 18.02-7.76 0.3-15.26-3.84-19.81-10-7.9601-10.37-7.78-26.09 0.6-36.16 2.9698-3.74 7.0497-6.6 11.56-8.17z" fill="#fff" stroke="#fff"/>
	<path d="m730.69 604.7c2.08-6.96 4.93-13.66 7.04-20.61 40.24 32.7 79.44 66.65 118.91 100.27 31.68 27.3 63.45 54.5 95.07 81.86 26.28 22.58 52.3 45.45 78.67 67.93-6.7 2.5-13.05 6.11-17.92 11.42-0.31-0.33-0.94-0.98-1.25-1.3-61.65-53.56-123.52-106.88-185.54-160.02-24.11-20.55-48.15-41.19-72.5-61.45-7.51-6.0101-14.54-12.66-22.48-18.1z" fill="#DE96AE" stroke="#DE96AE"/>
	<path d="m1439.4 685.58c9.95-1.69 20.59 0.99 28.18 7.72 13.03 10.79 17.38 30.06 11.49 45.72-3.0701 8.68-9.38 16.12-17.34 20.69-10.56 5.84-24.19 5.44-34.33-1.12-14.81-9.37-21.39-28.99-16.47-45.62 3.56-13.35 14.65-24.89 28.47-27.39z" fill="#fff" stroke="#fff"/>
	<path d="m1270.5 766.73c7.9501-2.89 16.67 3.27 17.86 11.34 2.1001 8.72-4.9199 18.82-14.24 18.3-8.49-0.39-14.42-9.33-13.08-17.36 0.66-5.4 4.28-10.41 9.46-12.28z" fill="#fff" stroke="#fff"/>
	<path d="m1503.2 769.36c6.47-2.48 14.14 1.05 17.26 7.05 3.79 6.8 2.38 16.31-3.78 21.25-4.7999 4.29-12.66 4.28-17.64 0.32-4.9199-3.94-7.25-10.83-5.7599-16.95 1.1399-5.19 4.8099-9.91 9.9199-11.67z" fill="#fff" stroke="#fff"/>
	<path d="m637.49 775.93c1.07 9.15 0.71 18.4 2 27.53-6.87 1.57-14.04 0.45-21.04 0.63-10.14-0.63-20.33-0.33-30.48-0.21-92.98-0.25-186-0.06-279-0.12-9.59 0.16-19.2-0.41-28.77 0.45-5 0.25-9.98-0.47-14.99-0.43 0.53-3.6801 1.4-7.3101 2.64-10.81-0.38 3.03-0.96 6.05-1.2 9.1 0.31 0.34 0.93 1.03 1.24 1.37 4.71 0.32 9.37-0.86 14.08-0.81 93.36 0.03 186.72 0.02 280.08 0.01 16.69-0.16 33.4 0.34 50.08-0.29 8.45 0.51 16.92 0.45 25.38 0.19 0.45-8.8699-0.26-17.74-0.02-26.61z" fill="#C7CA31" stroke="#C7CA31"/>
	<path d="m1347.5 798.62c16.49-4.54 34.85 2.21 45.36 15.5 13.93 16.84 15.65 42.37 4.41 61.07-8.39 14.67-25.16 24.6-42.23 23.1-15.28-1.04-29.09-10.88-36.36-24.15-9.88-17.42-8.89-40.46 2.65-56.87 6.21-8.99 15.53-15.9 26.17-18.65z" fill="#fff" stroke="#fff"/>
	<path d="m280.2 804.21c9.57-0.86 19.18-0.29 28.77-0.45 93 0.06 186.02-0.13 279 0.12 10.15-0.12 20.34-0.42 30.48 0.21 12.09 60.83 24.45 121.6 36.41 182.45-32.87 0.92-65.74 1.78-98.6 2.75-8.12 0.3-16.25 0.2401-24.36 0.6-14.68 0.55-29.38 0.8-44.06 1.24-7.67-24.48-15.27-48.99-22.96-73.47-1.33 1.1801-2.17 2.76-2.93 4.35-14.38 27.65-29.15 55.12-43.4 82.85-11.93-0.58-23.77-2.27-35.66-3.32-11.77-1.19-23.56-2.2599-35.32-3.57-6.55-0.53-13.08-1.3199-19.64-1.79-31.76-3.47-63.6-6.32-95.37-9.72 15.92-60.74 31.97-121.45 47.64-182.25z" fill="#135494" stroke="#135494"/>
	<path d="m1872.1 825.06c12.18-2.07 25.65 1.39 34.23 10.58 10.72 10.37 13.65 27.57 7.4301 41.04-4.6001 10.8-15.01 18.57-26.4 20.89-14.87 3.3-31.15-4.08-38.87-17.11-5.2001-8.33-6.51-18.72-4.36-28.22 1.13-4.84 3.73-9.13 5.6899-13.64 0.14-0.3199 0.4301-0.95 0.5801-1.27 0.2799 0.02 0.85 0.04 1.1399 0.05 5.32-6.07 12.33-11.28 20.56-12.32z" fill="#FFE8C8" stroke="#FFE8C8"/>
	<path d="m1030.4 834.15c0.98-0.4 2.03-0.75 3.13-0.76 4.46 0.13 8.97 0.03 13.38 0.88 9.35 2 17.95 7.54 23.44 15.4 10.05 13.88 8.51 34.79-3.83 46.79-11.6 12.46-32.11 14.64-46.22 5.27-13.68-8.2-20.33-25.98-15.86-41.2 0.99-5.09 4.57-9.07 6.24-13.88 0.2-0.8 0.38-1.59 0.55-2.38 0.31 0.32 0.94 0.97 1.25 1.3 4.8701-5.31 11.22-8.92 17.92-11.42z" fill="#FFE8C8" stroke="#FFE8C8"/>
	<path d="m133.32 863.51c3.96 0.24 8.06 1.14 11.43 3.3 4.52 3.64 9.61 6.78 12.98 11.63 7.9 10.18 10.14 24.46 5.22 36.45-5.99 15.78-23.78 25.96-40.43 22.72-16.37-2.42-29.4-17.31-30.61-33.65-0.94-12.12 4.48-24.48 14.1-31.93 7.5-6.53 17.68-8.3 27.31-8.52z" fill="#FFE8C8" stroke="#FFE8C8"/>
	<path d="m1493.3 914.47l0.6799-0.02c6.3501 0.19 12.7 0.14 19.05-0.15 10.51 43.75 21.78 87.33 32.54 131.03 6.0599 24.02 11.96 48.09 18.09 72.1 85.8 20.48 171.6 40.92 257.39 61.44 4.61 0.83 9.1 2.89 13.87 2.42-8.62 4.22-16.32 10.03-23.63 16.19-7.83-2.53-15.95-4.02-23.91-6.02-80.09-19.22-160.25-38.16-240.32-57.47-16.85-67.69-33.83-135.36-50.7-203.04-1.0399-5.27-3.1799-10.36-3.46-15.74 0.1001-0.1899 0.3001-0.5499 0.4001-0.7399z" fill="#DE96AE" stroke="#DE96AE"/>
	<path d="m1319 920.61c12.01-1.46 24.15-0.84 36.24-0.98-18.67 1.42-37.43 1.6-56.12 2.57-22.11 64.4-44.47 128.72-66.73 193.07-0.76 2.83-2.74 5.73-1.63 8.74 25.09 85.65 49.86 171.4 75.01 257.04-6.95 0.11-13.88 0.7699-20.74 1.86-1.71-8.4401-4.63-16.56-6.9-24.85-19.9-68.37-39.84-136.73-59.79-205.09-2.8201-10.68-6.5801-21.13-8.9701-31.9 22.42-66.16 45.74-132.06 68.28-198.19 6.78-0.68 13.67-0.02 20.39-1.43 6.9-1.43 13.97-0.43 20.96-0.84z" fill="#DE96AE" stroke="#DE96AE"/>
	<path d="m531.9 989.89c8.11-0.36 16.24-0.3 24.36-0.6 11.2 45.65 20.81 91.67 30.59 137.64 4 18.74 7.91 37.5 11.75 56.28 0.38 1.8201 0.87 3.7101 2.04 5.24 49.64 69.97 99.24 139.98 148.79 210.02 2.15 2.9601 4.42 5.88 5.86 9.29-8.69-1.67-17.43-3.27-26.29-3.63-49.4-69.35-98.48-138.93-147.72-208.39-1.51-2.6799-1.6201-5.86-2.35-8.77-9.87-47.71-19.93-95.37-30.48-142.93-3.98-18-8.19-35.93-12.6-53.82-1.32-0.13-2.64-0.24-3.95-0.33z" fill="#DE96AE" stroke="#DE96AE"/>
	<path d="m327.93 996.18c6.56 0.47 13.09 1.26 19.64 1.79 5.28 66.74 10.69 133.47 15.95 200.22-51.87 72.13-103.86 144.19-155.67 216.37-7.73-0.8701-15.5-1.25-23.28-1.2301 3.27-6.39 8.17-11.76 12.14-17.71 48.69-67.61 97.39-135.21 146.13-202.79-4.51-61.61-9.8-123.17-14.58-184.76-0.18-3.9601-1.17-7.9501-0.33-11.89z" fill="#DE96AE" stroke="#DE96AE"/>
	<path d="m1834.9 1181.3c6.5-3.55 13.7-6.05 21.12-6.61 6.38-0.4501 13.41 1.6599 17.24 7.08 4.8 6.73 4.9 15.52 4.05 23.43-2.3401 16.21-9.4401 31.3-17.78 45.25-8.3301 13.63-18.28 26.26-29.65 37.48-10.65 10.32-22.4 19.8-35.94 26.04-6.91 2.98-14.39 5.4-22 4.64-5.66-0.4399-11.21-3.58-13.94-8.64-4.08-7.23-3.9299-15.99-2.62-23.95 2.84-16.13 10.09-31.12 18.61-44.97 10.23-16.21 22.66-31.13 37.28-43.56 7.3099-6.1599 15.01-11.97 23.63-16.19z" fill="#C0475A" stroke="#C0475A"/>
	<path d="m1285 1382.9c6.86-1.0901 13.79-1.75 20.74-1.86 9.5801 0.08 19.46 0.87 28.28 4.9299 5.4299 2.55 10.74 6.67 12.39 12.72 2.1699 7.2101-0.9401 14.75-4.87 20.76-8.16 12.16-20.32 20.94-32.72 28.37-18.5 10.86-38.91 18.36-59.92 22.54-12.14 2.15-24.6 3.6801-36.91 2.2-7.14-0.7-14.33-2.3899-20.57-6.0199-5.1901-3.0701-9.6-8.27-9.9501-14.5-0.51-8.41 4.0601-16.1 9.2001-22.39 10.76-12.61 24.99-21.69 39.65-29.14 17.24-8.44 35.67-14.69 54.68-17.61z" fill="#C0475A" stroke="#C0475A"/>
	<path d="m648.54 1417.6c18.57-9.71 39.78-12.79 60.46-13.91 6.67-0.02 13.36-0.28 20 0.41 8.86 0.36 17.6 1.96 26.29 3.63 9.51 2.17 18.92 5.0699 27.57 9.63 6.49 3.36 12.63 7.8099 16.8 13.91 3.6201 5.35 4.33 12.75 1.06 18.45-3.99 7.47-11.34 12.42-18.67 16.25-19.22 9.53-40.93 12.41-62.14 13.26-21.35 0.12-43.08-2.28-63.09-10.11-9.26-3.91-18.71-8.9401-24.5-17.45-4.11-5.7699-4.32-13.97-0.43-19.89 3.99-6.2401 10.14-10.82 16.65-14.18z" fill="#0589F8" stroke="#0589F8"/>
	<path d="m126.13 1423.1c18.57-7.1101 38.61-9.9301 58.44-9.7301 7.78-0.0199 15.55 0.36 23.28 1.2301 13.01 1.6299 25.98 4.4399 38.08 9.6 7.5 3.24 14.78 7.49 20.23 13.7 3.98 4.4401 6.46 10.64 5.15 16.64-1.3 5.2-4.65 9.66-8.63 13.15-6.71 5.9299-15 9.6699-23.34 12.68-11.4 3.9401-23.33 6.27-35.32 7.4501-2.05 0.27-4.04 1.63-6.14 1-4.19-1.25-8.56-0.75-12.85-0.8-4.31 0.09-8.71-0.5-12.91 0.77-2.44 0.85-4.75-0.75-7.14-1.02-17.61-1.91-35.46-5.74-50.9-14.76-6.7-4.0699-13.21-9.63-15.65-17.34-1.99-5.9301 0.29-12.43 4.13-17.07 6.14-7.3402 14.81-12 23.57-15.5z" fill="#0589F8" stroke="#0589F8"/>
</g>
</svg>
